<svg width="38" height="48" viewBox="0 0 38 48" fill="none" xmlns="http://www.w3.org/2000/svg">
<path d="M35.0358 0C28.4803 1.34964 23.6028 4.71388 19.4432 8.6241C18.5522 9.54579 17.6953 10.512 16.8682 11.5156C17.3821 11.7206 17.8578 11.9473 18.264 12.2594C18.2968 12.218 18.3374 12.165 18.3694 12.1245C19.0285 11.2873 19.4666 10.7309 19.7524 10.433L21.1151 11.7402C21.0597 11.7981 20.5039 12.4662 19.8535 13.2926C19.203 14.1188 18.3931 15.1668 17.5948 16.2187C16.7966 17.2702 16.0093 18.3268 15.4063 19.1662C15.105 19.5858 14.8492 19.952 14.6654 20.229C14.4818 20.506 14.352 20.7729 14.3945 20.6627L12.6326 19.9828C12.7585 19.6566 12.886 19.4952 13.0916 19.1852C13.2052 19.0142 13.3403 18.818 13.4876 18.6075C13.069 18.3777 12.6241 18.1658 12.1695 18.0126C10.9268 19.9389 9.74387 21.9307 8.59903 23.9519C9.09633 24.0463 9.58367 24.1775 10.0311 24.3814C10.0885 24.4077 10.146 24.435 10.2032 24.4638C10.4419 24.0628 10.6596 23.7042 10.84 23.4201C11.0418 23.1029 11.1598 22.906 11.3573 22.687L12.7604 23.9509C12.7923 23.9156 12.6179 24.1437 12.4338 24.4333C12.2496 24.7228 12.0137 25.1108 11.7475 25.5606C11.4168 26.1191 11.0369 26.7782 10.6442 27.4704C10.5476 27.642 10.448 27.8189 10.338 28.0118C10.1982 28.2604 10.0577 28.5109 9.91772 28.7625C9.27647 29.9159 8.64865 31.0752 8.17254 31.9936C7.93438 32.4528 7.734 32.8526 7.59162 33.154C7.44915 33.4553 7.35735 33.7365 7.38252 33.6293L5.5444 33.1962C5.62277 32.8639 5.72506 32.6837 5.88401 32.3472C5.98997 32.1234 6.12427 31.8547 6.26979 31.5679C6.25132 31.5581 6.23453 31.5485 6.21072 31.5375C6.06405 31.4688 5.80092 31.4074 5.46477 31.3847C5.19408 31.3664 4.88248 31.3727 4.55053 31.3872C3.82031 32.7568 3.09429 34.1199 2.36701 35.4637C4.9085 35.0726 7.59183 35.5565 9.99619 36.6457C12.6411 37.8439 14.9705 39.7761 16.4146 42.183C17.4313 40.9884 18.4212 39.7888 19.3886 38.5849C18.756 37.8455 18.0326 37.1681 17.2301 36.5384C16.8337 37.1037 15.9483 38.365 15.9483 38.365L14.4014 37.2814C14.4014 37.2814 16.0596 34.9134 17.7413 32.5224C18.5821 31.3268 19.4288 30.1256 20.0778 29.2102C20.4022 28.7525 20.6771 28.3664 20.8785 28.0866C20.9792 27.9464 21.0611 27.8332 21.124 27.7479C21.1555 27.7053 21.1821 27.67 21.2067 27.638C21.2312 27.6061 21.2103 27.6153 21.3231 27.5024L22.6583 28.838C22.6908 28.8054 22.6914 28.804 22.6997 28.795C22.6879 28.8102 22.6688 28.8351 22.6431 28.8699C22.5889 28.9435 22.5095 29.0527 22.4112 29.1892C22.2148 29.4623 21.9414 29.8463 21.6183 30.3022C21.569 30.3716 21.4921 30.4816 21.4407 30.5542C22.3487 31.1934 23.1651 31.9656 23.8495 32.8097C25.3884 30.7436 26.8801 28.6678 28.3452 26.5858C27.6874 25.7969 26.9282 25.0775 26.08 24.412C25.6837 24.9773 24.798 26.2384 24.798 26.2384L23.2513 25.1549C23.2513 25.1549 24.9096 22.7871 26.5912 20.3959C27.4321 19.2004 28.2787 17.999 28.9277 17.0837C29.2522 16.6258 29.5271 16.2398 29.7285 15.9598C29.8292 15.8198 29.9111 15.7068 29.974 15.6215C30.0057 15.5789 30.0319 15.5436 30.0566 15.5116C30.0811 15.4797 30.06 15.4889 30.173 15.376L31.5083 16.7116C31.5403 16.6793 31.5408 16.678 31.5492 16.6689C31.5375 16.6842 31.5186 16.7089 31.4931 16.7433C31.4385 16.8171 31.3593 16.9263 31.2612 17.0628C31.0646 17.3359 30.7912 17.7199 30.4681 18.1758C30.4187 18.2452 30.3418 18.355 30.2904 18.4276C31.1353 19.0222 31.9009 19.732 32.5545 20.5076C34.1075 18.2388 35.6516 15.9661 37.2117 13.6933C36.3553 12.1482 35.7838 9.91793 35.4002 7.40886C35.0319 5.00208 34.8941 2.38726 35.0355 0.000104858L35.0358 0ZM32.4197 2.51673L32.4232 3.82104C32.4303 6.58401 32.4483 9.87208 33.2898 12.3939L33.7142 13.6663L32.3733 13.6369C30.1475 13.5879 27.9726 12.9568 26.2024 12.0813C24.4322 11.2058 23.0399 10.1578 22.434 8.83037L22.1423 8.19143L22.6703 7.72854C24.8803 5.78969 28.054 3.96352 31.1817 2.92695L32.4197 2.51673ZM30.5435 5.17666C28.3743 6.0502 26.2096 7.31066 24.5688 8.61004C25.0685 9.15739 25.9338 9.84155 27.0396 10.3884C28.2287 10.9766 29.6636 11.4365 31.1271 11.6373C30.634 9.49218 30.5577 7.2241 30.5435 5.17656V5.17666ZM14.2448 12.7799L12.2205 16.0544C13.1081 16.2673 13.8818 16.6465 14.5305 17.022C14.8316 16.5988 15.1238 16.1913 15.7076 15.3526C16.1239 14.7542 16.5373 14.1521 16.8341 13.7026C16.8456 13.6853 16.8492 13.6784 16.8603 13.6616C16.5564 13.4766 16.1597 13.2603 15.7436 13.1064C15.1356 12.8815 14.5617 12.8067 14.2447 12.7799H14.2448ZM29.3086 20.0605L27.3129 22.9823C28.8735 24.2203 30.2025 25.6747 31.1931 27.3974L32.8271 24.9282C32.4072 23.3481 31.0383 21.3505 29.3087 20.0607L29.3086 20.0605ZM6.8272 25.6691C6.61422 25.6653 6.52609 25.682 6.37292 25.6904L4.51674 29.5051C4.87031 29.4918 5.22828 29.4761 5.59171 29.5006C6.06331 29.5325 6.5433 29.6085 7.01018 29.8267C7.03504 29.8382 7.05875 29.8561 7.08362 29.8687C7.38326 29.3551 7.5719 29.0348 8.0564 28.1945C8.44669 27.5176 8.83572 26.8377 9.1213 26.327C9.17428 26.232 9.20051 26.1812 9.24573 26.0993C8.97987 25.9785 8.57637 25.8633 8.14474 25.7867C7.71196 25.7097 7.23166 25.6762 6.82699 25.6692L6.8272 25.6691ZM20.4584 32.187L18.4626 35.1086C20.0232 36.3466 21.3522 37.8011 22.3428 39.5237L23.977 37.0543C23.5571 35.4742 22.188 33.4769 20.4584 32.187ZM1.88587 37.474C1.53419 37.5593 1.18996 37.6656 0.855591 37.7951L0 38.1259C0.144155 42.8597 2.98738 46.1913 6.39485 47.4424C9.6144 48.6248 13.4127 47.9547 15.7654 45.1632L15.3664 44.241C15.2174 43.8969 15.0433 43.5593 14.8478 43.2291C13.0842 46.0637 9.89411 46.716 7.04596 45.6701C4.18154 44.6183 1.75986 41.8568 1.88587 37.474Z" fill="white"/>
</svg>
