<svg width="24" height="24" viewBox="0 0 24 24" fill="none" xmlns="http://www.w3.org/2000/svg">
<path d="M12 24C18.6274 24 24 18.6274 24 12C24 5.37258 18.6274 0 12 0C5.37258 0 0 5.37258 0 12C0 18.6274 5.37258 24 12 24Z" fill="url(#paint0_linear_10_1370)"/>
<path d="M12 6.21364C15.1903 6.21364 17.7852 8.80976 17.7852 11.9988C17.7852 15.1878 15.1903 17.784 12 17.784C8.80979 17.784 6.21608 15.1878 6.21608 11.9988C6.21608 8.80976 8.80979 6.21364 12 6.21364ZM12 3.95239C7.55554 3.95239 3.95242 7.55551 3.95242 12C3.95242 16.4445 7.55554 20.0476 12 20.0476C16.4457 20.0476 20.0488 16.4445 20.0488 12C20.0488 7.55551 16.4457 3.95239 12 3.95239Z" fill="#CC3333"/>
<defs>
<linearGradient id="paint0_linear_10_1370" x1="12" y1="0" x2="12" y2="21.4795" gradientUnits="userSpaceOnUse">
<stop stop-color="#5B5B5F"/>
<stop offset="0.0231" stop-color="#59595D"/>
<stop offset="0.4507" stop-color="#333335"/>
<stop offset="0.7912" stop-color="#1C1C1D"/>
<stop offset="1" stop-color="#141414"/>
</linearGradient>
</defs>
</svg>
