<svg width="24" height="24" viewBox="0 0 24 24" fill="none" xmlns="http://www.w3.org/2000/svg">
<path d="M12 24C18.6274 24 24 18.6274 24 12C24 5.37258 18.6274 0 12 0C5.37258 0 0 5.37258 0 12C0 18.6274 5.37258 24 12 24Z" fill="#3D3D3D"/>
<path d="M18.2612 7.63883C18.7859 7.11416 18.7859 6.2635 18.2612 5.73882C17.7365 5.21415 16.8859 5.21415 16.3612 5.73882L12 10.1L7.63882 5.73882C7.11419 5.2142 6.26356 5.21433 5.7391 5.73912C5.21488 6.26368 5.21501 7.11384 5.7394 7.63824L10.1012 12L5.7394 16.3618C5.21506 16.8862 5.21506 17.7363 5.7394 18.2606C6.26375 18.785 7.11388 18.785 7.63822 18.2606L12 13.8988L16.3618 18.2606C16.8862 18.785 17.7364 18.7852 18.2609 18.2609C18.7857 17.7365 18.7858 16.8859 18.2612 16.3612L13.9 12L18.2612 7.63883Z" fill="#6054C6"/>
</svg>
