<svg width="104" height="48" viewBox="0 0 104 48" fill="none" xmlns="http://www.w3.org/2000/svg">
    <path
        d="M3.73449 0C1.93874 1.79575 0.903039 2.7365 0.213021 4.11631C0.151318 4.24083 0.094264 4.36759 0.0419758 4.49634C0.608535 5.19466 1.85277 6.13788 3.61395 7.0371C3.64134 6.45595 3.70082 6.17649 3.8272 5.92351C4.03528 5.50735 4.79533 4.65257 6.59108 2.85682L3.73449 0ZM99.9702 0L97.1136 2.85682C98.9093 4.65257 99.6694 5.50735 99.8773 5.92351C100.004 6.17649 100.063 6.45595 100.091 7.03688C101.852 6.13788 103.096 5.19466 103.663 4.49634C103.61 4.36759 103.553 4.24083 103.492 4.11631C102.802 2.7365 101.766 1.79575 99.9702 0ZM0 9.68674V18.7688C0.576885 19.6278 1.92774 20.7373 3.94931 21.7654C3.92911 20.0092 3.93786 18.0336 4.04358 16.1312C4.12686 14.6291 4.26222 13.1781 4.51789 11.8513C4.30846 11.77 4.10105 11.6881 3.89656 11.6048C2.45861 11.0199 1.16612 10.3886 0 9.68674ZM103.705 9.68674C102.539 10.3886 101.246 11.0201 99.8079 11.6048C99.6036 11.6879 99.3962 11.77 99.1868 11.8513C99.4424 13.1781 99.5778 14.6291 99.6611 16.131C99.7668 18.0336 99.7756 20.0092 99.7554 21.7656C101.777 20.7376 103.128 19.6278 103.705 18.7685V9.68674ZM39.0695 10.6318L32.6088 36.8767L49.8321 47.9998V36.0946L57.0151 32.5031V24.2258L49.8321 20.6343V10.6313L39.0695 10.6318ZM53.8726 10.6318V18.1373L61.0556 21.7288V35.0005L53.8726 38.5921V48L71.0954 36.8764L64.6352 10.6315L53.8726 10.6318ZM8.39694 13.1727C8.25058 14.111 8.14149 15.2087 8.07774 16.3557C7.94306 18.7822 7.9792 21.3358 8.02432 23.4355C10.2728 24.2092 12.8167 24.9037 15.4778 25.4952C16.1564 25.646 16.8421 25.7881 17.5301 25.9253C17.5676 23.3057 17.6724 20.4918 17.9699 17.8159C18.0556 17.0444 18.1512 16.2828 18.2648 15.5371C17.4985 15.3908 16.7336 15.2376 15.9701 15.0776C13.3624 14.5285 10.7934 13.8969 8.39694 13.1727ZM95.3077 13.1727C92.9113 13.8967 90.3423 14.5285 87.7346 15.0776C86.9711 15.2376 86.2061 15.3908 85.4398 15.5371C85.5534 16.2825 85.6491 17.0444 85.7348 17.8159C86.0322 20.4918 86.1371 23.3055 86.1748 25.9253C86.8625 25.7881 87.5485 25.646 88.2269 25.4952C90.8879 24.9037 93.4318 24.2092 95.6804 23.4355C95.7255 21.3358 95.7616 18.7822 95.6269 16.3557C95.5632 15.2087 95.4541 14.111 95.3077 13.1727ZM22.2745 16.2457C22.157 16.9146 22.0606 17.5871 21.9856 18.2621C21.6871 20.949 21.5941 23.8963 21.5643 26.651C24.5909 27.1378 27.6346 27.5124 30.6889 27.7738L33.1985 17.5788C30.1902 17.3476 26.3771 16.9099 22.2745 16.2455V16.2457ZM81.4302 16.2457C77.3275 16.9101 73.5145 17.3476 70.5061 17.5788L73.0157 27.7738C76.0701 27.5124 79.1137 27.1378 82.1404 26.651C82.1105 23.8963 82.0176 20.949 81.7191 18.2621C81.6416 17.5667 81.544 16.8924 81.4302 16.2455V16.2457ZM0.468242 24.4972L0.793049 30.0685C8.58033 33.1767 18.1602 35.3839 28.4932 36.6933L29.7044 31.7729C25.024 31.341 19.6689 30.5653 14.6015 29.4391C10.4757 28.5224 6.55719 27.3792 3.33247 25.9459C2.31113 25.492 1.34861 25.0166 0.468242 24.4974V24.4972ZM103.236 24.4972C102.356 25.0166 101.394 25.492 100.372 25.9459C97.1475 27.3792 93.2287 28.5224 89.1032 29.4391C84.0358 30.5653 78.6806 31.341 74.0002 31.7729L75.2115 36.6933C85.5444 35.3837 95.1243 33.1767 102.912 30.0683L103.236 24.4972Z"
        fill="white" />
</svg>
