<svg width="60" height="60" viewBox="0 0 60 60" fill="none" xmlns="http://www.w3.org/2000/svg">
<path d="M30 0C13.5 0 0 13.5 0 30C0 46.5 13.5 60 30 60C46.5 60 60 46.5 60 30C60 13.5 46.5 0 30 0ZM30 58C14.6 58 2.00004 45.4 2.00004 30C2.00004 14.6 14.6 2.00004 30 2.00004C45.4 2.00004 58 14.6 58 30C58 45.4 45.4 58 30 58Z" fill="white" fill-opacity="0.04"/>
<path d="M30 6C16.8 6 6 16.8 6 30C6 43.2 16.8 54 30 54C43.2 54 54 43.2 54 30C54 16.8 43.2 6 30 6ZM30 52C17.9 52 8.00004 42.1 8.00004 30C8.00004 17.9 17.9 8.00004 30 8.00004C42.1 8.00004 52 17.9 52 30C52 42.1 42.1 52 30 52Z" fill="white" fill-opacity="0.04"/>
<path d="M44 40H41.7251L31.0001 12.7C30.9367 12.5416 30.8331 12.4035 30.7052 12.2948C30.5965 12.167 30.4584 12.0633 30.3 11.9999C29.7999 11.7999 29.1999 12.0999 29 12.5999L18.2358 39.9999H16.0001C15.4001 39.9999 15.0001 40.3998 15.0001 40.9998C15.0001 41.5998 15.4001 41.9998 16.0001 41.9998H23C23.6 41.9998 24 41.5998 24 40.9998C24 40.3998 23.6 39.9999 23 39.9999H20.4108L29.9804 15.6408L39.5501 39.9999H37.0001C36.4001 39.9999 36.0001 40.3998 36.0001 40.9998C36.0001 41.5998 36.4001 41.9998 37.0001 41.9998H41C41.1 41.9998 41.2001 41.9998 41.4 41.9998H44C44.6 41.9998 45 41.5998 45 40.9998C45 40.3998 44.6 40 44 40Z" fill="white" fill-opacity="0.04"/>
</svg>
