<svg width="39" height="24" viewBox="0 0 39 24" fill="none" xmlns="http://www.w3.org/2000/svg">
<path d="M31.856 17.0924L31.8561 17.0924C34.1216 14.6343 35.1037 11.5741 35.5235 9.15062C35.9175 6.87668 35.8244 5.1151 35.8031 4.84332L35.8032 4.84332L35.7965 4.73262V4.62579C35.7965 3.93191 35.6347 3.31892 35.2005 2.88537C34.7664 2.45198 34.1527 2.29034 33.4573 2.29034H4.65993C3.96454 2.29034 3.35134 2.45198 2.91808 2.88592C2.48497 3.31972 2.32448 3.9327 2.32448 4.62579V4.72008L2.3157 4.80497L2.31444 4.81717L2.31378 4.82942C2.31434 4.81893 2.31101 4.8722 2.30838 4.9247C2.30534 4.98529 2.30168 5.0713 2.29871 5.18042C2.29279 5.3986 2.28967 5.70921 2.30001 6.09375C2.32065 6.86224 2.39509 7.92903 2.60939 9.14514C3.03672 11.5702 4.02765 14.6304 6.29972 17.089L6.29981 17.0891C9.16221 20.1847 13.4953 21.7097 19.09 21.7097C24.6771 21.7097 29.0049 20.1848 31.856 17.0924ZM0.530385 4.66877L0.530398 4.66862L0.53041 4.66848L0.532235 4.64732V4.62579C0.532235 3.34387 0.952816 2.32153 1.65387 1.62089C2.35496 0.920217 3.37785 0.5 4.65993 0.5H33.4573C34.7393 0.5 35.7617 0.920201 36.4623 1.62079C37.1629 2.32137 37.5831 3.34372 37.5831 4.62579V4.64811L37.585 4.67003L37.585 4.67018L37.585 4.67033L37.5852 4.67178L37.5859 4.68017L37.5887 4.71736C37.5911 4.75108 37.5945 4.80242 37.5982 4.87022C37.6055 5.00583 37.6137 5.20715 37.6171 5.46478C37.6238 5.98024 37.6109 6.7199 37.5319 7.60875C37.3736 9.38924 36.9514 11.7531 35.9017 14.1094C34.8535 16.4622 33.1828 18.8016 30.5251 20.5555C27.8681 22.3088 24.1899 23.5 19.0881 23.5C13.9864 23.5 10.3041 22.3088 7.64127 20.5552C4.97759 18.801 3.29926 16.4612 2.24359 14.1082C1.18632 11.7516 0.756682 9.38769 0.59282 7.60719C0.511017 6.71833 0.495789 5.97867 0.500871 5.46321C0.503411 5.20558 0.511021 5.00426 0.517884 4.86865C0.521316 4.80086 0.524559 4.74951 0.526886 4.7158L0.529597 4.67861L0.530266 4.67022L0.530385 4.66877Z" fill="#C4C4C4" stroke="white"/>
<path d="M15.0658 16.4341V9.06592H16.6088V15.0929H20.2609V16.4341H15.0658V16.4341Z" fill="white"/>
<path d="M20.3249 16.5H15V9H16.6738V15.027H20.3249V16.5ZM15.1308 16.3692H20.1961V15.1578H16.5439V9.12983H15.1308V16.3692Z" fill="white"/>
<path d="M21.8698 16.4341V11.3409H20.3598V10.3412C20.6774 10.3412 20.945 10.3163 21.1598 10.2633C21.3745 10.2124 21.5502 10.1325 21.686 10.0256C21.8219 9.91878 21.9257 9.78596 21.9966 9.62617C22.0665 9.46738 22.1135 9.28063 22.1354 9.06592H23.3139V16.4341H21.8698V16.4341Z" fill="white"/>
</svg>
