<svg width="47" height="48" viewBox="0 0 47 48" fill="none" xmlns="http://www.w3.org/2000/svg">
<path d="M10.3097 0.000102851C9.16737 1.12601 8.26992 2.84034 7.62633 4.24019C8.24831 6.30482 8.76685 8.44591 10.4603 9.89247C12.4013 8.45023 13.2439 6.41915 14.0813 4.09355C13.0503 2.91999 11.9987 1.19249 10.3097 0V0.000102851ZM36.654 0.000102851C34.9651 1.19249 33.9135 2.91999 32.8824 4.09355C33.7198 6.41915 34.5624 8.45023 36.5034 9.89247C38.1969 8.44591 38.7154 6.30482 39.3375 4.24019C38.6937 2.84034 37.7963 1.12601 36.654 0.000102851ZM20.0067 2.40021C18.8185 2.6831 17.4394 3.14412 16.195 3.70507C15.3077 6.67909 13.9389 9.40233 11.4649 11.3957L13.168 29.6213L11.1167 28.753L9.61327 11.4865C7.94998 9.83937 6.73176 7.05913 5.66266 4.15076C5.29785 3.91367 4.93377 3.7237 4.56968 3.5926C5.21151 12.1263 7.17745 22.8087 9.40694 31.8501C9.66873 31.7308 9.99824 31.6031 10.3047 31.4941C13.3368 32.2472 16.1699 34.5152 18.7275 36.9551C16.8958 25.6465 23.4819 14.1209 20.0067 2.40021ZM26.957 2.40021C23.4819 14.1209 30.0679 25.6465 28.2362 36.955C30.7937 34.5151 33.6269 32.247 36.6589 31.494C36.9654 31.6031 37.2949 31.7307 37.5567 31.8501C39.7862 22.8087 41.7522 12.1262 42.394 3.59249C42.0299 3.7236 41.6658 3.91356 41.3011 4.15066C40.2319 7.05902 39.0137 9.83937 37.3504 11.4864L35.8469 28.7529L33.7956 29.6212L35.4988 11.3956C33.0249 9.40233 31.6559 6.67899 30.7687 3.70487C29.5243 3.14402 28.1451 2.683 26.9569 2.4L26.957 2.40021ZM10.4131 33.45C9.04337 34.0337 7.54041 35.3389 7.01568 37.0174C9.45716 37.4989 12.45 38.9116 14.7876 41.1737L15.1938 43.9385L18.6378 42.696L18.501 39.7033C16.4685 36.7497 13.2452 34.2574 10.4131 33.45ZM36.5507 33.45C33.7187 34.2574 30.4953 36.7497 28.4628 39.7033L28.3259 42.696L31.7699 43.9385L32.1761 41.1737C34.5137 38.9116 37.5067 37.4989 39.9481 37.0174C39.4233 35.3389 37.9204 34.0337 36.5507 33.45ZM6.47027 38.7881L1.09265 42.8295C0.0314706 44.3989 -0.23722 46.1852 0.201782 47.6824C5.61048 48.6387 9.28355 47.3441 13.4812 45.0235L13.0413 42.0305C11.5283 40.473 9.57694 39.3185 6.47027 38.7881ZM40.4937 38.7881C37.387 39.3185 35.4357 40.473 33.9226 42.0305L33.4827 45.0235C37.6804 47.344 41.3535 48.6387 46.7622 47.6824C47.2012 46.1851 46.9325 44.3989 45.8713 42.8295L40.4937 38.7881Z" fill="white"/>
</svg>
