<svg width="64" height="65" viewBox="0 0 64 65" fill="none" xmlns="http://www.w3.org/2000/svg">
<path d="M16.8812 21.0255C14.6812 22.6255 11.2813 26.2255 11.8813 32.2255C13.7813 51.6255 37.8805 52.9255 45.2802 35.2255C49.8801 50.0255 57.0798 54.6255 58.3798 52.7255C58.5798 52.3255 58.5798 51.8255 58.2798 51.5255C58.2798 51.5255 54.1799 46.8255 53.18 36.9255C52.18 26.4255 48.0801 23.9255 43.9803 21.4255L43.4803 21.1255C43.1803 20.9255 42.7803 20.9255 42.4803 21.1255C42.1803 21.3255 41.9803 21.6255 41.9803 22.0255C41.9803 22.1255 42.0803 27.3255 41.0804 30.8255C37.1805 23.8255 25.2809 22.7255 22.781 30.7255C20.681 37.3255 26.8808 39.4255 29.4807 36.8255C30.0807 36.2255 29.6807 35.3255 28.9808 35.2255C28.6808 35.1255 27.7808 34.9255 27.3808 34.3255C27.1808 34.0255 27.0808 33.6255 27.1808 33.2255C28.3808 27.3255 40.5804 34.0255 31.5807 40.7255C31.4807 40.7255 29.4807 42.0255 26.6808 42.0255C22.081 42.0255 18.1811 37.9255 17.9811 33.2255C17.4811 23.7255 31.7807 18.1255 39.6804 24.6255C39.9804 24.8255 40.3804 24.9255 40.6804 24.7255C40.9804 24.5255 41.2804 24.2255 41.2804 23.8255C41.2804 23.7255 41.2804 15.5255 32.5806 12.8255C24.6809 10.3255 18.2811 6.22548 16.5812 3.72548C16.3812 3.32548 15.8812 3.22548 15.4812 3.32548C15.0812 3.42548 14.7812 3.82548 14.7812 4.32548C14.7812 4.42548 15.4812 13.6255 24.4809 16.1255C25.0809 16.3255 25.5809 16.4255 26.0809 16.6255C25.4809 16.7255 24.7809 16.8255 24.2809 17.0255C8.38145 12.0255 2.78163 0.725483 2.68163 0.525483C2.48164 0.125483 2.08165 -0.0745166 1.68167 0.0254834C1.28168 0.125483 0.981689 0.425483 0.881695 0.825483C0.881695 0.925483 -1.51823 13.8255 16.8812 21.0255Z" fill="white" fill-opacity="0.6"/>
<path d="M12.1812 48.8255C16.6811 56.4255 25.4808 57.5255 33.5805 55.0255C39.6803 62.8255 45.8801 64.0255 49.18 64.0255C51.1799 64.0255 52.3799 63.6255 52.4799 63.5255C52.8799 63.4255 53.1799 63.0255 53.0799 62.6255C53.0799 62.2255 52.7799 61.8255 52.3799 61.7255C45.6801 59.8255 41.8803 55.7255 40.3803 53.8255L42.8802 52.9255C47.3801 61.5255 60.0797 61.9255 62.6796 61.9255C62.9796 61.9255 63.0796 61.9255 63.0796 61.9255C63.5795 61.9255 63.9795 61.5255 63.9795 61.1255C64.0795 60.6255 63.7795 60.2255 63.3795 60.0255C48.68 55.2255 44.7802 46.7255 43.7802 41.6255C42.2802 43.5255 40.5803 45.1255 38.6804 46.4255C38.7804 46.8255 38.9804 47.1255 39.0804 47.4255C30.9806 50.8255 18.981 50.2255 13.3812 47.4255C12.9812 47.3255 12.5812 47.4255 12.2812 47.7255C11.9813 48.0255 11.9813 48.5255 12.1812 48.8255Z" fill="white" fill-opacity="0.6"/>
</svg>
