<svg width="57" height="48" viewBox="0 0 57 48" fill="none" xmlns="http://www.w3.org/2000/svg">
<path d="M28.0999 2.46088C39.7838 2.46088 46.9557 12.1499 46.9557 22.7145C46.9557 33.0029 41.1957 41.3221 33.2652 47.2882L33.6421 48H52.1748L56.1951 40.2825H54.2423L51.6855 44.1132H42.1744C48.7539 39.4045 54.2423 32.0172 54.2423 22.9323C54.2423 8.42927 41.2496 0 28.0999 0C14.9479 0 1.96215 8.42927 1.96215 22.9323C1.96215 32.0172 7.44819 39.4045 14.0254 44.1132H4.512L1.9598 40.2825H0L4.02498 48H22.5553L22.937 47.2882C15.0041 41.3221 9.23941 33.0029 9.23941 22.7145C9.23941 12.1499 16.4137 2.46088 28.0999 2.46088Z" fill="#CC3333"/>
</svg>
