<svg width="39" height="31" viewBox="0 0 39 31" fill="none" xmlns="http://www.w3.org/2000/svg">
<path d="M0.783924 22.296C-0.667688 23.2638 -0.183817 25.1025 2.91296 25.9734C6.1065 27.038 9.59037 27.3283 12.9775 26.7476C13.171 26.7476 13.3646 26.6509 13.4613 26.6509V23.3605L10.171 24.425C8.91296 24.8121 7.65489 24.9089 6.39683 24.6186C5.42909 24.3283 5.62263 23.7476 6.78392 23.2638L13.4613 20.9412V17.3605L4.17102 20.5541C3.00973 20.9412 1.84844 21.5218 0.783924 22.296ZM23.2355 7.77989V17.167C27.2033 19.1025 30.3 17.167 30.3 12.1347C30.3 7.00569 28.4613 4.68311 23.1388 2.8444C20.3323 1.87666 17.4291 1.00569 14.5259 0.425049V28.3928L21.3001 30.425V6.90892C21.3001 5.8444 21.3 5.07021 22.0742 5.36053C23.1388 5.65086 23.2355 6.71537 23.2355 7.77989ZM35.8162 20.0702C33.0097 19.1025 30.0097 18.7154 27.1065 19.0057C25.5581 19.1025 24.1065 19.4896 22.7517 19.9734L22.4613 20.0702V23.8444L28.7517 21.5218C30.0097 21.1347 31.2678 21.038 32.5259 21.3283C33.4936 21.6186 33.3 22.1992 32.1388 22.6831L22.4613 26.2638V29.9412L35.8162 25.0057C36.7839 24.6186 37.6549 24.1347 38.4291 23.3605C39.1065 22.3928 38.8162 21.038 35.8162 20.0702Z" fill="white" fill-opacity="0.9"/>
</svg>
