<svg width="39" height="48" viewBox="0 0 39 48" fill="none" xmlns="http://www.w3.org/2000/svg">
<path d="M0 39.0042L3.12762 42.5134L6.25523 39.0042V11.1235H0.00438259V39.0042H0ZM3.12762 36.4216C3.40957 36.4216 3.68519 36.5052 3.91963 36.6618C4.15406 36.8185 4.33679 37.0411 4.44469 37.3016C4.55259 37.5621 4.58083 37.8487 4.52583 38.1252C4.47083 38.4018 4.33507 38.6558 4.13571 38.8552C3.93634 39.0546 3.68233 39.1903 3.4058 39.2454C3.12927 39.3004 2.84263 39.2722 2.58214 39.1643C2.32164 39.0564 2.09898 38.8737 1.94233 38.6393C1.78567 38.4048 1.70204 38.1292 1.70202 37.8473C1.70187 37.66 1.7386 37.4746 1.81011 37.3016C1.88162 37.1286 1.98651 36.9713 2.11879 36.8388C2.25107 36.7064 2.40816 36.6012 2.58108 36.5294C2.75399 36.4577 2.93935 36.4207 3.12657 36.4205L3.12762 36.4216ZM32.4791 11.1235V39.0042L35.6068 42.5134L38.7344 39.0042V11.1235H32.4836H32.4791ZM35.6068 39.272C35.3249 39.272 35.0492 39.1884 34.8148 39.0317C34.5804 38.8751 34.3977 38.6524 34.2898 38.3919C34.1819 38.1314 34.1537 37.8448 34.2087 37.5682C34.2637 37.2917 34.3995 37.0377 34.5989 36.8383C34.7983 36.639 35.0523 36.5032 35.3288 36.4482C35.6054 36.3932 35.892 36.4215 36.1525 36.5294C36.413 36.6373 36.6356 36.82 36.7923 37.0544C36.9489 37.2889 37.0325 37.5645 37.0325 37.8464C37.0325 38.0337 36.9956 38.219 36.924 38.392C36.8523 38.565 36.7473 38.7221 36.6149 38.8545C36.4825 38.9869 36.3254 39.0919 36.1524 39.1635C35.9794 39.2352 35.794 39.272 35.6068 39.272ZM24.3598 12.5139V42.2963L27.4873 45.8056L30.6149 42.2963V11.1233H25.7382C25.3366 11.6414 24.8738 12.1091 24.3598 12.516V12.5139ZM27.4873 39.7105C27.7693 39.7105 28.0449 39.7941 28.2793 39.9508C28.5138 40.1074 28.6965 40.3301 28.8044 40.5906C28.9123 40.8511 28.9405 41.1378 28.8855 41.4143C28.8305 41.6908 28.6947 41.9449 28.4953 42.1442C28.2959 42.3436 28.0418 42.4794 27.7653 42.5343C27.4887 42.5893 27.2021 42.5611 26.9416 42.4531C26.6811 42.3452 26.4585 42.1624 26.3019 41.928C26.1452 41.6935 26.0617 41.4179 26.0617 41.1359C26.0623 40.7591 26.212 40.3979 26.4781 40.1312C26.7443 39.8645 27.1051 39.714 27.4819 39.7126L27.4873 39.7105ZM16.239 13.6236V44.4907L19.3667 48L22.4944 44.4908V13.6237C21.5043 14.0406 20.4409 14.2554 19.3667 14.2554C18.2924 14.2554 17.229 14.0406 16.239 13.6237V13.6236ZM20.7923 43.3337C20.7923 43.6156 20.7087 43.8912 20.5521 44.1257C20.3955 44.3601 20.1728 44.5428 19.9123 44.6507C19.6518 44.7586 19.3652 44.7869 19.0887 44.7319C18.8121 44.6769 18.5581 44.5411 18.3587 44.3418C18.1594 44.1424 18.0236 43.8884 17.9686 43.6119C17.9135 43.3353 17.9417 43.0487 18.0496 42.7882C18.1575 42.5277 18.3402 42.305 18.5746 42.1484C18.8091 41.9917 19.0847 41.9081 19.3666 41.9081C19.7447 41.9081 20.1073 42.0583 20.3747 42.3256C20.642 42.593 20.7922 42.9556 20.7922 43.3337H20.7923ZM12.9953 11.1233H8.11951V42.2963L11.2471 45.8056L14.3747 42.2963V12.516C13.8604 12.1091 13.3972 11.6415 12.9953 11.1233ZM11.2516 42.5639C10.9697 42.5639 10.694 42.4803 10.4596 42.3236C10.2252 42.167 10.0424 41.9443 9.93453 41.6838C9.82663 41.4234 9.7984 41.1367 9.85341 40.8602C9.90842 40.5836 10.0442 40.3296 10.2436 40.1302C10.4429 39.9309 10.697 39.7951 10.9735 39.7401C11.25 39.6851 11.5367 39.7133 11.7972 39.8212C12.0577 39.9291 12.2803 40.1118 12.437 40.3463C12.5936 40.5807 12.6772 40.8563 12.6772 41.1383C12.6772 41.3255 12.6403 41.5109 12.5687 41.6839C12.497 41.8568 12.392 42.014 12.2596 42.1464C12.1272 42.2788 11.9701 42.3838 11.7971 42.4554C11.6241 42.527 11.4387 42.5639 11.2515 42.5639H11.2516ZM27.4269 6.19492C27.4273 5.20915 27.2459 4.23176 26.8918 3.31179H38.7355V9.25785H26.8239C27.2237 8.28631 27.4286 7.24563 27.427 6.19503L27.4269 6.19492ZM0 3.31179H11.8437C11.1064 5.23005 11.132 7.35784 11.9151 9.25785H0V3.312V3.31179ZM19.3666 12.3898C18.1414 12.3898 16.9437 12.0265 15.9249 11.3458C14.9062 10.6651 14.1122 9.69759 13.6433 8.56562C13.1744 7.43364 13.0517 6.18805 13.2908 4.98636C13.5298 3.78466 14.1198 2.68083 14.9862 1.81445C15.8525 0.948078 16.9564 0.358069 18.1581 0.119036C19.3598 -0.119996 20.6054 0.00268409 21.7373 0.471563C22.8693 0.940442 23.8368 1.73446 24.5175 2.75321C25.1982 3.77196 25.5616 4.96968 25.5616 6.19492C25.5616 7.00847 25.4013 7.81405 25.09 8.56567C24.7786 9.31728 24.3223 10.0002 23.747 10.5755C23.1718 11.1507 22.4888 11.607 21.7372 11.9183C20.9856 12.2297 20.18 12.3899 19.3664 12.3898H19.3666Z" fill="white"/>
</svg>
