<svg width="39" height="24" viewBox="0 0 39 24" fill="none" xmlns="http://www.w3.org/2000/svg">
<path d="M31.856 17.0924L31.8561 17.0924C34.1216 14.6343 35.1037 11.5741 35.5236 9.15062C35.9175 6.87672 35.8245 5.11515 35.8031 4.84332L35.8032 4.84332L35.7965 4.73262V4.62579C35.7965 3.93191 35.6347 3.31892 35.2005 2.88537C34.7664 2.45198 34.1527 2.29034 33.4573 2.29034H4.65994C3.96454 2.29034 3.35135 2.45198 2.91809 2.88592C2.48498 3.31972 2.32449 3.9327 2.32449 4.62579V4.72008L2.31571 4.80497L2.31445 4.81717L2.31379 4.82942C2.31435 4.81891 2.31101 4.87219 2.30838 4.9247C2.30535 4.98529 2.30168 5.0713 2.29872 5.18042C2.2928 5.3986 2.28968 5.70921 2.30001 6.09375C2.32066 6.86224 2.3951 7.92903 2.6094 9.14514C3.03673 11.5702 4.02766 14.6304 6.29972 17.089L6.29982 17.0891C9.16222 20.1847 13.4953 21.7097 19.0901 21.7097C24.6771 21.7097 29.0049 20.1848 31.856 17.0924ZM0.530393 4.66877L0.530406 4.66862L0.530418 4.66848L0.532243 4.64732V4.62579C0.532243 3.34387 0.952824 2.32153 1.65388 1.62089C2.35496 0.920217 3.37785 0.5 4.65994 0.5H33.4573C34.7393 0.5 35.7617 0.920201 36.4623 1.62079C37.1629 2.32137 37.5831 3.34372 37.5831 4.62579V4.64811L37.585 4.67003L37.585 4.67018L37.5851 4.67033L37.5852 4.67178L37.5859 4.68017L37.5887 4.71736C37.5911 4.75108 37.5945 4.80242 37.5982 4.87022C37.6055 5.00583 37.6137 5.20715 37.6171 5.46478C37.6238 5.98024 37.6109 6.7199 37.5319 7.60875C37.3736 9.38924 36.9514 11.7531 35.9017 14.1094C34.8535 16.4622 33.1828 18.8016 30.5251 20.5555C27.8682 22.3088 24.1899 23.5 19.0882 23.5C13.9864 23.5 10.3042 22.3088 7.64127 20.5552C4.9776 18.801 3.29927 16.4612 2.2436 14.1082C1.18632 11.7516 0.75669 9.38769 0.592828 7.60719C0.511025 6.71833 0.495796 5.97867 0.500878 5.46321C0.503418 5.20558 0.511028 5.00426 0.517892 4.86865C0.521324 4.80086 0.524567 4.74951 0.526894 4.7158L0.529605 4.67861L0.530273 4.67022L0.530393 4.66877Z" fill="#C4C4C4" stroke="white"/>
<path d="M21.8698 16.4341V11.3409H20.3599V10.3412C20.6774 10.3412 20.9451 10.3163 21.1598 10.2633C21.3745 10.2124 21.5503 10.1325 21.6861 10.0256C21.8219 9.91878 21.9258 9.78596 21.9967 9.62617C22.0666 9.46738 22.1135 9.28063 22.1355 9.06592H23.3139V16.4341H21.8698Z" fill="white"/>
<path d="M23.3768 16.5H21.8049V11.4058H20.2949V10.2773H20.3588C20.6714 10.2773 20.9341 10.2523 21.1428 10.2014C21.3475 10.1525 21.5153 10.0766 21.6461 9.9747C21.773 9.87383 21.8708 9.748 21.9367 9.6002C22.0026 9.4484 22.0476 9.26664 22.0696 9.05892L22.0755 9H23.3768V16.5ZM21.9337 16.3692H23.246V9.12983H22.1924C22.1674 9.32656 22.1225 9.50233 22.0556 9.65113C21.9817 9.81991 21.8698 9.96272 21.724 10.0756C21.5812 10.1884 21.3945 10.2723 21.1738 10.3272C20.969 10.3762 20.7174 10.4021 20.4228 10.4051V11.275H21.9327V16.3692H21.9337Z" fill="white"/>
<path d="M17.3592 16.4361V14.5366C17.3592 14.1821 17.2773 13.9284 17.1156 13.7756C16.9518 13.6258 16.6492 13.5479 16.2048 13.5479H14.562V16.4361H13.064V9.06592H16.803C17.1445 9.06592 17.4531 9.11985 17.7317 9.2267C18.0084 9.33356 18.2471 9.48236 18.4468 9.67111C18.6465 9.85886 18.8003 10.0846 18.9082 10.3482C19.015 10.6109 19.068 10.8935 19.068 11.1971C19.068 11.5965 18.9741 11.9501 18.7853 12.2577C18.5976 12.5643 18.3249 12.781 17.9704 12.9058C18.296 13.0107 18.5277 13.1694 18.6635 13.3842C18.8013 13.5989 18.8692 13.9204 18.8692 14.3499V16.4381H17.3592V16.4361ZM14.562 10.3422V12.3066H16.4934C16.9088 12.3066 17.1995 12.2147 17.3712 12.03C17.541 11.8442 17.6259 11.6115 17.6259 11.3299C17.6259 11.0423 17.543 10.8056 17.3762 10.6198C17.2094 10.4341 16.9338 10.3422 16.5503 10.3422H14.562Z" fill="white"/>
</svg>
