<svg width="39" height="25" viewBox="0 0 39 25" fill="none" xmlns="http://www.w3.org/2000/svg">
<path d="M32.2584 17.1157L32.2586 17.1154C34.5311 14.6544 35.5224 11.5938 35.9495 9.1688C36.3583 6.84709 36.258 5.06215 36.2414 4.84663L36.2415 4.84662L36.2347 4.74937L36.2331 4.64625C36.2325 3.95458 36.0711 3.34338 35.6387 2.91066C35.2054 2.477 34.5925 2.31529 33.8979 2.31529H5.10519C4.41063 2.31529 3.79746 2.477 3.36374 2.91038C2.92993 3.34385 2.76813 3.95666 2.76813 4.65045V4.75164L2.75875 4.85483L2.75857 4.85481L2.75773 4.86789C2.75774 4.86769 2.7578 4.86681 2.75731 4.87386L2.75598 4.89396C2.7549 4.91089 2.75347 4.93451 2.75185 4.96453C2.74863 5.02455 2.7447 5.11 2.7414 5.21855C2.73479 5.4356 2.73069 5.74518 2.7398 6.12879C2.758 6.89543 2.82902 7.96083 3.03939 9.17595C3.45888 11.5989 4.43985 14.6591 6.70397 17.1187L6.70424 17.119C9.55491 20.2108 13.8802 21.7355 19.472 21.7355C25.064 21.7355 29.3964 20.2108 32.2584 17.1157ZM0.97815 4.69493L0.978164 4.69478L0.978176 4.69463L0.980132 4.67273V4.65045C0.980132 3.36845 1.39988 2.34627 2.09987 1.64587C2.79982 0.945503 3.82145 0.525391 5.10329 0.525391H33.8979C35.1787 0.525391 36.2005 0.945452 36.901 1.64598C37.6016 2.34653 38.0221 3.36885 38.023 4.65079L38.023 4.67217L38.0248 4.69317L38.0249 4.69332L38.0249 4.69347L38.025 4.69491L38.0257 4.70331L38.0284 4.7405C38.0307 4.77422 38.0339 4.82556 38.0374 4.89336C38.0443 5.02898 38.0519 5.23031 38.0545 5.48795C38.0596 6.00343 38.0444 6.74313 37.9628 7.63203C37.7991 9.41261 37.3698 11.7767 36.3131 14.1333C35.2579 16.4865 33.5803 18.8263 30.9175 20.5805C28.2555 22.3342 24.5743 23.5254 19.4739 23.5254C14.373 23.5254 10.6953 22.3342 8.03858 20.5808C5.38112 18.8268 3.71043 16.4873 2.6622 14.1344C1.61237 11.778 1.19002 9.41405 1.03161 7.63348C0.952535 6.7446 0.939564 6.0049 0.946217 5.48942C0.949542 5.23178 0.957765 5.03045 0.965041 4.89483C0.968679 4.82703 0.972079 4.77568 0.974508 4.74197L0.977332 4.70477L0.978026 4.69637L0.97815 4.69493Z" fill="white" fill-opacity="0.7" stroke="black"/>
<path d="M19.0539 14.9612V13.0618C19.0539 12.7072 18.972 12.4536 18.8102 12.3008C18.6464 12.151 18.3438 12.0731 17.8994 12.0731H16.2566V14.9612H14.7586V7.59106H18.4976C18.8392 7.59106 19.1478 7.64499 19.4264 7.75185C19.703 7.85871 19.9417 8.00751 20.1414 8.19626C20.3412 8.38401 20.495 8.60971 20.6028 8.87335C20.7097 9.136 20.7626 9.41863 20.7626 9.72222C20.7626 10.1217 20.6687 10.4752 20.48 10.7828C20.2922 11.0894 20.0196 11.3061 19.6651 11.4309C19.9906 11.5358 20.2223 11.6946 20.3581 11.9093C20.496 12.124 20.5639 12.4456 20.5639 12.875V14.9632H19.0539V14.9612ZM16.2566 8.86736V10.8317H18.188C18.6035 10.8317 18.8941 10.7399 19.0659 10.5551C19.2356 10.3694 19.3205 10.1367 19.3205 9.85505C19.3205 9.56743 19.2376 9.33074 19.0709 9.14499C18.9041 8.95924 18.6284 8.86736 18.245 8.86736H16.2566Z" fill="white" fill-opacity="0.7"/>
<path d="M20.6278 15.0254H18.99V13.062C18.99 12.7265 18.9141 12.4868 18.7653 12.348C18.6155 12.2091 18.3249 12.1392 17.8994 12.1392H16.3215V15.0254H14.6947V7.52539H18.4986C18.8462 7.52539 19.1657 7.58231 19.4494 7.69117C19.733 7.80102 19.9817 7.95482 20.1864 8.14856C20.3921 8.3423 20.5519 8.57799 20.6627 8.84763C20.7726 9.11727 20.8285 9.41088 20.8285 9.72146C20.8285 10.1309 20.7297 10.4994 20.5359 10.816C20.3691 11.0866 20.1374 11.2914 19.8448 11.4282C20.1025 11.535 20.2932 11.6838 20.4131 11.8726C20.5569 12.0973 20.6288 12.4348 20.6288 12.8733V15.0254H20.6278ZM19.1188 14.8966H20.499V12.8733C20.499 12.4598 20.434 12.1452 20.3052 11.9425C20.1764 11.7418 19.9537 11.591 19.6461 11.4921L19.4623 11.4332L19.6441 11.3693C19.9836 11.2504 20.2473 11.0397 20.4261 10.7471C20.6078 10.4525 20.6987 10.1069 20.6987 9.72146C20.6987 9.42885 20.6458 9.15122 20.5429 8.89656C20.439 8.6439 20.2892 8.42419 20.0985 8.24343C19.9048 8.06068 19.6701 7.91587 19.4024 7.81201C19.1348 7.70815 18.8292 7.65622 18.4976 7.65622H14.8225V14.8966H16.1917V12.0094H17.8984C18.3638 12.0094 18.6754 12.0913 18.8532 12.2551C19.0289 12.4189 19.1178 12.6905 19.1178 13.063V14.8966H19.1188ZM18.188 10.8959H16.1927V8.80269H18.245C18.6464 8.80269 18.941 8.90355 19.1188 9.10129C19.2966 9.29803 19.3864 9.55169 19.3864 9.85429C19.3864 10.1519 19.2946 10.4016 19.1138 10.5973C18.9311 10.796 18.6195 10.8959 18.188 10.8959ZM16.3215 10.7671H18.188C18.5825 10.7671 18.8611 10.6812 19.0169 10.5094C19.1747 10.3376 19.2546 10.1169 19.2546 9.85429C19.2546 9.58365 19.1767 9.35994 19.0229 9.18817C18.8701 9.0174 18.6075 8.93152 18.245 8.93152H16.3215V10.7671Z" fill="white" fill-opacity="0.7"/>
<path d="M22.6601 14.9612V9.86603H21.1511V8.86736C21.4676 8.86736 21.7353 8.8424 21.95 8.78947C22.1647 8.73853 22.3405 8.65864 22.4763 8.55178C22.6151 8.44493 22.717 8.3111 22.7889 8.15232C22.8588 7.99253 22.9047 7.80578 22.9277 7.59106H24.1041V14.9612H22.6601Z" fill="white" fill-opacity="0.7"/>
<path d="M24.1681 15.0254H22.5962V9.93018H21.0862V8.80269H21.1511C21.4627 8.80269 21.7263 8.77772 21.9341 8.72679C22.1398 8.67785 22.3086 8.60096 22.4384 8.50109C22.5662 8.39923 22.6651 8.27439 22.73 8.12559C22.7969 7.97279 22.8418 7.79104 22.8638 7.58431L22.8698 7.52539H24.1691V15.0254H24.1681ZM22.726 14.8966H24.0392V7.65622H22.9847C22.9607 7.85096 22.9137 8.02672 22.8468 8.17652C22.7729 8.3463 22.6611 8.48911 22.5173 8.60196C22.3735 8.7148 22.1877 8.79869 21.965 8.85162C21.7613 8.90156 21.5096 8.92752 21.216 8.93152V9.80136H22.725V14.8966H22.726Z" fill="white" fill-opacity="0.7"/>
</svg>
