<svg width="33" height="32" viewBox="0 0 33 32" fill="none" xmlns="http://www.w3.org/2000/svg">
<path d="M16.7138 0C25.5597 0 32.7154 7.15256 32.7154 15.9984C32.7154 24.8442 25.5597 32 16.7138 32C7.86798 32 0.718628 24.8442 0.718628 15.9984C0.718628 7.15256 7.86799 0 16.7138 0ZM16.2306 0.713671L15.8305 0.729673L15.9521 3.85318L16.3554 3.83718L16.2306 0.713671ZM18.0228 0.736073L17.5651 3.82118L17.962 3.87879L18.1156 2.84188L19.0629 3.9652L19.3733 3.70597L18.3236 2.46425L19.5909 1.9682L18.0228 0.736073ZM13.7951 0.886488L13.3311 1.38574L12.1406 1.28333L12.9054 4.48365L13.9199 3.84999L14.56 4.08681L14.7008 3.70917L13.8751 3.40514L13.1647 3.84678L12.659 1.73137L13.4943 1.80498L14.0896 1.15852L13.7951 0.886488ZM21.4855 1.45935L20.4614 4.41004L20.8422 4.54125L21.8663 1.59056L21.4855 1.45935ZM18.3172 1.47855L18.7876 1.84659L18.2308 2.06741L18.3172 1.47855ZM9.12586 2.61466L9.02025 4.69167L10.4156 3.91719L10.2908 5.47575L10.6908 5.50775L10.8764 3.19712L9.4587 3.9876L9.52591 2.63386L9.12586 2.61466ZM24.673 2.87069L23.0729 3.17152L23.1465 3.55556L24.1418 3.36674L22.8552 5.47255L23.1849 5.67417L24.4714 3.57156L24.7626 4.54445L25.1339 4.43244L24.673 2.87069ZM16.6722 4.17642L12.8542 16.1072L13.6255 16.7313L16.573 7.43754L18.09 11.9788L19.2133 11.9468L16.6722 4.17642ZM17.5907 5.72857L17.9107 6.78788C20.9824 7.18291 23.5677 9.12762 24.865 11.8092L26.0108 11.8572C24.5988 8.48079 21.3981 6.04414 17.5907 5.72857ZM15.8017 5.73497C11.9215 6.0975 8.68323 8.66725 7.35608 12.1772H8.4602C9.68015 9.33682 12.3167 7.24844 15.4817 6.80388L15.8017 5.73497ZM6.09517 6.41664L4.23577 7.14311L6.66162 9.10491L6.91445 8.79128L6.09836 8.13201L7.5481 7.88559L7.4809 7.48875L5.87754 7.76078L6.09517 6.41664ZM5.58631 7.0471L5.4903 7.63916L5.02625 7.26473L5.58631 7.0471ZM29.1695 7.0471L26.5292 8.71127L26.7436 9.0505L27.9021 8.32083L29.2559 9.0377L29.1695 7.0471ZM28.7982 7.75437L28.8238 8.35283L28.2958 8.07121L28.7982 7.75437ZM3.30768 8.68247L3.11886 9.0345L5.87434 10.5099L6.06315 10.1546L3.30768 8.68247ZM30.9425 10.2666L27.9886 11.2619L28.1134 11.6332L29.7071 11.0955L29.6271 12.4108L30.0176 12.4332L30.104 10.9611L30.5424 10.8139L30.52 12.1228L30.9104 12.1292L30.9425 10.2666ZM2.98445 10.8683L1.86433 12.3564L4.83743 13.2877L4.95265 12.9165L3.34928 12.414L4.18778 11.3963L3.88693 11.1499L2.94925 12.2892L2.5076 12.1516L3.29488 11.1051L2.98445 10.8683ZM28.0846 12.142L15.4113 12.35L15.1329 13.2877L25.1467 13.1725L20.9478 16.2672L21.2071 17.2529L28.0846 12.142ZM13.6383 12.3852L5.34628 12.5229L15.6193 19.8324L16.4898 19.1571L8.51461 13.3645L13.3599 13.3069L13.6383 12.3852ZM19.7285 13.5214L18.6148 13.5534L21.7543 22.9783L17.8403 20.1364L16.9154 20.7573L23.6713 25.5706L19.7285 13.5214ZM26.5676 13.627L25.6395 14.251C25.719 14.7323 25.7611 15.2257 25.7611 15.7296C25.7611 18.3102 24.676 20.6336 22.9384 22.2774L23.2425 23.3847C25.4097 21.5427 26.7852 18.7963 26.7852 15.7296C26.7852 15.0088 26.7119 14.3046 26.5676 13.627ZM30.888 13.8606L30.616 14.1358L31.3361 14.8495L28.875 14.9935L28.8974 15.3807L31.3585 15.2367L30.7248 16.0304L31.0289 16.2736L32.0466 15.0031L30.888 13.8606ZM6.86644 13.9758C6.76617 14.5451 6.71282 15.1315 6.71282 15.7296C6.71282 18.7326 8.03151 21.426 10.1212 23.2663L10.4476 22.1782C8.77088 20.5408 7.73052 18.2574 7.73052 15.7296C7.73052 15.3362 7.75526 14.9447 7.80413 14.5647L6.86644 13.9758ZM4.57181 16.8017L1.4707 17.1953L1.5219 17.5954L3.15407 17.3873L2.38599 18.373L1.63391 18.469L1.68192 18.8659L4.78302 18.4722L4.73182 18.0754L2.94605 18.3026L3.71413 17.3169L4.62302 17.2017L4.57181 16.8017ZM19.5333 17.3105L11.5869 23.1735L13.0847 18.4434L12.2782 17.893L9.75953 25.7594L19.8149 18.2866L19.5333 17.3105ZM28.8526 17.605L28.7662 17.9858L31.0161 18.485L30.4048 18.9459L30.76 19.6244L28.5134 19.1251L28.4302 19.506L31.4961 20.1876L30.9008 19.0579L31.9185 18.2866L28.8526 17.605ZM3.15726 20.4532L2.61641 21.9894L4.08856 22.6839L4.25498 22.3318L3.33968 21.8998L5.61511 20.9493L5.4647 20.5909L3.18927 21.5414L3.5253 20.5813L3.15726 20.4532ZM28.0301 20.6549L27.8477 21.0133L28.7854 21.4869L27.4189 22.031L27.5661 22.4054L29.0767 21.8038L29.1471 23.1639L30.8112 22.0662L28.0301 20.6549ZM29.4831 21.8422L30.0143 22.111L29.5151 22.4406L29.4831 21.8422ZM6.37038 23.1191L6.27758 24.7417L5.01665 24.2296L5.30788 26.201L7.76253 24.2776L7.51611 23.9608L6.69041 24.6105L6.77363 23.1415L6.37038 23.1191ZM20.6438 23.8616C19.4654 24.4272 18.1435 24.7449 16.749 24.7449C15.3581 24.7449 14.0372 24.4277 12.8606 23.8648L11.9037 24.5209C13.3405 25.3151 14.9913 25.769 16.749 25.769C18.5063 25.769 20.1578 25.3147 21.5943 24.5209L20.6438 23.8616ZM5.5159 24.8665L6.07276 25.0905L5.60231 25.4585L5.5159 24.8665ZM25.0346 24.9625L24.7178 25.2121L25.4667 26.1658L24.817 27.5164L25.1755 27.6924L25.7419 26.5147L26.0652 26.9275L25.4091 28.2716L25.7675 28.4476L26.3404 27.2763L26.6508 27.67L26.9644 27.4203L25.0346 24.9625ZM9.71793 25.9642L8.68422 27.2891L8.02495 26.1466L7.68892 26.3418L8.425 27.6188L8.14016 27.9836L7.4393 26.8795L7.10966 27.0907L8.10816 28.6589L10.0252 26.2042L9.71793 25.9642ZM22.6152 26.6651L22.26 26.8507L23.7033 29.6222L24.0618 29.4365L22.6152 26.6651ZM11.0781 26.8123L9.82673 29.6958L11.0461 29.3277L11.6093 30.4702L12.8606 27.5868L12.5054 27.4331L11.5869 29.5454L11.2509 28.8605L10.518 29.0813L11.4365 26.9691L11.0781 26.8123ZM21.1719 27.3819L20.7878 27.4972L21.0887 28.5021L19.7509 27.8908L19.5845 28.2556L21.0631 28.9341L20.1254 29.923L22.068 30.371L21.1719 27.3819ZM18.2788 28.1244L17.8915 28.1404L17.9779 30.4414L17.3763 29.9678L16.813 30.483L16.7234 28.1852L16.333 28.198L16.4546 31.3375L17.3955 30.4767L18.3972 31.2639L18.2788 28.1244ZM21.3127 29.2541L21.4855 29.8238L20.8998 29.6894L21.3127 29.2541Z" fill="white"/>
</svg>
