<svg width="87" height="48" viewBox="0 0 87 48" fill="none" xmlns="http://www.w3.org/2000/svg">
<path d="M8.51975 29.5494C9.09227 29.8344 9.67981 30.0882 10.2798 30.3096C8.06758 32.8461 5.54013 35.1736 3.71344 35.1736C3.45888 35.1762 3.20662 35.1253 2.97304 35.0241C0.750034 34.0441 0.876136 28.9657 1.48863 24.3954C2.26146 25.1755 2.98385 25.8096 3.49907 26.2383C5.0407 27.5301 6.72524 28.6411 8.51975 29.5494ZM82.841 26.2329C81.2996 27.5266 79.6151 28.6394 77.8203 29.5494C77.2477 29.8344 76.6602 30.0882 76.0602 30.3096C78.2724 32.8461 80.7999 35.1736 82.6266 35.1736C82.8811 35.1762 83.1334 35.1253 83.367 35.0241C85.59 34.0441 85.4639 28.9657 84.8514 24.3954C84.0804 25.17 83.358 25.8042 82.841 26.2329ZM4.07914 5.80071C1.93179 11.9059 14.1673 24.3126 20.4508 25.8222C21.3615 26.0101 22.29 26.0977 23.2197 26.0834C25.6499 26.0834 28.5322 25.597 29.3447 24.2657C32.3567 19.2829 29.9067 4.69461 25.1347 1.3583C23.8016 0.425144 21.5119 0 18.9178 0C12.9297 0 5.32755 2.26264 4.07914 5.80071ZM67.433 0.0162139C64.8389 0.0162139 62.5511 0.439558 61.2126 1.36371C56.4225 4.6748 53.677 19.49 57.0026 24.2711C57.9033 25.561 60.8235 26.1753 63.2356 26.1753C64.2877 26.1753 65.2442 26.0582 65.8892 25.8276C71.9817 23.6658 84.4082 11.9041 82.2609 5.80612C81.0143 2.26264 73.4157 0.0162139 67.433 0.0162139ZM47.4368 12.104L53.6518 9.76213C53.9355 8.58318 54.2856 7.42119 54.7003 6.2817L43.3204 10.5674L31.5461 6.19343C31.9483 7.32506 32.2881 8.47793 32.5639 9.64684L39.2077 12.1148L33.3583 14.3198C33.4646 15.3467 33.5259 16.3555 33.5385 17.3319L43.3294 13.6443L52.6628 17.1121C52.688 16.0312 52.7709 15.017 52.8754 14.1163L47.4368 12.104ZM2.84514 13.7254C2.62896 13.3272 2.4326 12.9363 2.25245 12.549C0.91757 14.0244 -0.111066 15.5412 0.00963212 16.6257C0.490623 20.9492 9.09081 28.1551 13.971 28.1551C14.3644 28.1596 14.7562 28.1044 15.1329 27.9911C15.5702 27.8219 15.9589 27.5471 16.2642 27.1913C13.9458 25.9249 11.8254 24.1955 10.5338 23.0443C7.32177 20.1818 4.51329 16.7842 2.84694 13.7217L2.84514 13.7254ZM84.0389 12.4968C83.0049 14.6315 81.4124 16.8941 79.2993 19.2252C76.4277 22.394 72.9671 25.2547 69.9317 27.0472C70.355 27.5246 70.7838 27.8668 71.2035 28.0002C71.5803 28.1134 71.9721 28.1687 72.3654 28.1641C77.2456 28.1641 85.8476 20.9582 86.3268 16.6347C86.4529 15.525 85.3972 13.9848 84.0407 12.4932L84.0389 12.4968ZM29.1555 27.9389C29.2276 28.101 29.2996 28.265 29.3717 28.4325C30.8129 31.8355 31.3263 40.3348 30.7066 47.7604L33.5781 48C34.2681 39.7241 33.5583 30.461 31.528 26.1645C30.9001 26.9472 30.0838 27.5577 29.1555 27.9389ZM54.9165 26.2689C54.6264 27.4813 54.34 28.9243 54.0662 30.6447C53.1842 36.3716 52.8177 42.1661 52.9709 47.9586L55.8532 47.8631C55.7074 42.3087 56.0541 36.7522 56.8891 31.259C57.08 30.0376 57.2782 28.9693 57.4763 28.0362C56.4897 27.66 55.6085 27.0513 54.9074 26.2617L54.9165 26.2689Z" fill="white"/>
</svg>
